<svg id="Capa_1" data-name="Capa 1" xmlns="http://www.w3.org/2000/svg" viewBox="0 0 360.48 380.08"><defs><style>.cls-1,.cls-2{stroke:#000;stroke-miterlimit:10;stroke-width:3px;}.cls-2{fill:none;}</style></defs><title>logo</title><path class="cls-1" d="M644.85,1053.26V966.78q0-16.1,9.75-26.28t25.32-10.2q18.45,0,28.38,17,6.08-9.13,13-13t17.14-3.91q16.17,0,24.79,10.2t8.61,29.35v83.41H736.17v-78c0-3.86-.31-6.43-.93-7.69s-1.86-1.89-3.73-1.89q-5.28,0-5.28,9v78.66H690.55v-78c0-3.81-.32-6.35-1-7.64s-1.9-1.94-3.78-1.94q-5.26,0-5.27,9.58v78Z" transform="translate(-629.82 -727.25)"/><path class="cls-1" d="M844.27,986h34q11,13.63,11,28.74a38.68,38.68,0,0,1-12.87,29.53q-12.89,12-31.69,12-24.44,0-41.48-18.55t-17.05-45.17q0-26.71,17.35-44.48t43.38-17.75a62.88,62.88,0,0,1,19.69,3.6v35.69q-8.45-4-15.39-4-12.57,0-20.52,7.83t-8,20.3q0,12.74,7.38,20.21t20,7.47q8,0,8-4.65,0-3.52-5.27-3.52h-8.53Z" transform="translate(-629.82 -727.25)"/><path class="cls-2" d="M630.39,1106a495,495,0,0,1,327.31-17.46" transform="translate(-629.82 -727.25)"/><path class="cls-2" d="M630.39,1106" transform="translate(-629.82 -727.25)"/><path class="cls-2" d="M963.54,733.89A14.25,14.25,0,0,1,988.75,743c0,.32,0,.63,0,.94" transform="translate(-629.82 -727.25)"/><path class="cls-2" d="M957.9,1088.66c-96.47-100.28-93.4-259.49,6.88-356" transform="translate(-629.82 -727.25)"/><path class="cls-2" d="M989.18,741.51" transform="translate(-629.82 -727.25)"/><path class="cls-2" d="M796.84,878.54a166.89,166.89,0,0,0,192-135" transform="translate(-629.82 -727.25)"/></svg>